<svg id="visual" viewBox="0 0 900 600" width="900" height="600" xmlns="http://www.w3.org/2000/svg" xmlns:xlink="http://www.w3.org/1999/xlink" version="1.1"><rect x="0" y="0" width="900" height="600" fill="#aa9cd3"></rect><path d="M0 363L21.5 367.5C43 372 86 381 128.8 395.3C171.7 409.7 214.3 429.3 257.2 425.8C300 422.3 343 395.7 385.8 390C428.7 384.3 471.3 399.7 514.2 405.7C557 411.7 600 408.3 642.8 400.2C685.7 392 728.3 379 771.2 383.3C814 387.7 857 409.3 878.5 420.2L900 431L900 601L878.5 601C857 601 814 601 771.2 601C728.3 601 685.7 601 642.8 601C600 601 557 601 514.2 601C471.3 601 428.7 601 385.8 601C343 601 300 601 257.2 601C214.3 601 171.7 601 128.8 601C86 601 43 601 21.5 601L0 601Z" fill="#5b8fb9"></path><path d="M0 425L21.5 434C43 443 86 461 128.8 456.5C171.7 452 214.3 425 257.2 412.3C300 399.7 343 401.3 385.8 404C428.7 406.7 471.3 410.3 514.2 414.8C557 419.3 600 424.7 642.8 431.7C685.7 438.7 728.3 447.3 771.2 446.2C814 445 857 434 878.5 428.5L900 423L900 601L878.5 601C857 601 814 601 771.2 601C728.3 601 685.7 601 642.8 601C600 601 557 601 514.2 601C471.3 601 428.7 601 385.8 601C343 601 300 601 257.2 601C214.3 601 171.7 601 128.8 601C86 601 43 601 21.5 601L0 601Z" fill="#62a8c5"></path><path d="M0 507L21.5 507.7C43 508.3 86 509.7 128.8 503.7C171.7 497.7 214.3 484.3 257.2 484C300 483.7 343 496.3 385.8 496.2C428.7 496 471.3 483 514.2 476.8C557 470.7 600 471.3 642.8 475.8C685.7 480.3 728.3 488.7 771.2 486C814 483.3 857 469.7 878.5 462.8L900 456L900 601L878.5 601C857 601 814 601 771.2 601C728.3 601 685.7 601 642.8 601C600 601 557 601 514.2 601C471.3 601 428.7 601 385.8 601C343 601 300 601 257.2 601C214.3 601 171.7 601 128.8 601C86 601 43 601 21.5 601L0 601Z" fill="#76bfcc"></path><path d="M0 491L21.5 496.3C43 501.7 86 512.3 128.8 514.5C171.7 516.7 214.3 510.3 257.2 510.7C300 511 343 518 385.8 523.7C428.7 529.3 471.3 533.7 514.2 528.8C557 524 600 510 642.8 504C685.7 498 728.3 500 771.2 503C814 506 857 510 878.5 512L900 514L900 601L878.5 601C857 601 814 601 771.2 601C728.3 601 685.7 601 642.8 601C600 601 557 601 514.2 601C471.3 601 428.7 601 385.8 601C343 601 300 601 257.2 601C214.3 601 171.7 601 128.8 601C86 601 43 601 21.5 601L0 601Z" fill="#93d5d2"></path><path d="M0 532L21.5 530.7C43 529.3 86 526.7 128.8 531.2C171.7 535.7 214.3 547.3 257.2 555.7C300 564 343 569 385.8 570.5C428.7 572 471.3 570 514.2 564C557 558 600 548 642.8 544.5C685.7 541 728.3 544 771.2 542C814 540 857 533 878.5 529.5L900 526L900 601L878.5 601C857 601 814 601 771.2 601C728.3 601 685.7 601 642.8 601C600 601 557 601 514.2 601C471.3 601 428.7 601 385.8 601C343 601 300 601 257.2 601C214.3 601 171.7 601 128.8 601C86 601 43 601 21.5 601L0 601Z" fill="#b6eada"></path></svg>